<svg width="44" height="43" viewBox="0 0 44 43" fill="none" xmlns="http://www.w3.org/2000/svg">
<path fill-rule="evenodd" clip-rule="evenodd" d="M27.2024 7.79267C25.7555 6.99989 24.1031 6.5429 22.3546 6.51949C22.285 6.51855 22.206 6.51855 22.0612 6.51855H22.055H22.0488C21.904 6.51855 21.825 6.51855 21.7554 6.51949C16.5682 6.58894 12.2273 10.4743 11.5854 15.622C11.5768 15.6911 11.5681 15.7697 11.5521 15.9138L11.5514 15.9197L11.1026 19.959C10.9881 20.9899 10.9348 21.4629 10.8351 21.9208C10.6904 22.5852 10.4723 23.2314 10.1847 23.8476C9.98649 24.2722 9.74225 24.6807 9.20858 25.5702L7.71057 28.0669L7.68412 28.1109C7.21422 28.8941 6.82581 29.5414 6.60607 30.0712C6.38054 30.615 6.25975 31.2047 6.57665 31.7644C6.89354 32.3241 7.46139 32.524 8.04373 32.6104C8.61112 32.6945 9.366 32.6945 10.2793 32.6945H10.3307H33.7793H33.8307C34.744 32.6945 35.4989 32.6945 36.0663 32.6104C36.6486 32.524 37.2165 32.3241 37.5334 31.7644C37.8503 31.2047 37.7295 30.615 37.5039 30.0712C37.2842 29.5414 36.8958 28.8941 36.4259 28.111L36.3994 28.0669L34.9014 25.5702C34.3678 24.6807 34.1235 24.2722 33.9253 23.8476C33.6377 23.2314 33.4196 22.5852 33.2749 21.9208C33.1753 21.4629 33.1219 20.9899 33.0074 19.959L32.8117 18.1977C32.4267 18.3218 32.0248 18.408 31.6102 18.4521L31.7927 20.094L31.797 20.1329C31.9061 21.115 31.9659 21.6537 32.0807 22.1808C32.2447 22.9338 32.4919 23.6662 32.8178 24.3645C33.046 24.8533 33.3248 25.3181 33.8332 26.1654L33.8534 26.199L35.3514 28.6957C35.8544 29.5341 36.1942 30.1035 36.375 30.5394C36.5541 30.9713 36.5039 31.1019 36.4698 31.1622C36.4356 31.2226 36.3494 31.3328 35.8869 31.4014C35.4201 31.4706 34.7571 31.4723 33.7793 31.4723H10.3307C9.35295 31.4723 8.68993 31.4706 8.22309 31.4014C7.76061 31.3328 7.67439 31.2226 7.64022 31.1622C7.60606 31.1019 7.55594 30.9713 7.73506 30.5394C7.91585 30.1035 8.25557 29.5341 8.75862 28.6957L10.2566 26.199L10.2768 26.1653L10.2769 26.1653C10.7852 25.3181 11.0641 24.8533 11.2922 24.3645C11.6181 23.6662 11.8654 22.9338 12.0293 22.1808C12.1441 21.6537 12.2039 21.1151 12.313 20.1331L12.313 20.133L12.3174 20.094L12.7662 16.0547C12.783 15.9031 12.7908 15.8332 12.7983 15.7733C13.3646 11.2311 17.1948 7.80289 21.7718 7.7416C21.8321 7.74079 21.9024 7.74078 22.055 7.74078C22.2076 7.74078 22.2779 7.74079 22.3382 7.7416C23.7533 7.76055 25.097 8.10133 26.2949 8.69735C26.5644 8.36457 26.8688 8.06116 27.2024 7.79267ZM29.3111 9.31918C28.9409 9.51372 28.6091 9.77145 28.33 10.078C29.9299 11.5105 31.0286 13.5027 31.3117 15.7733C31.3187 15.8287 31.3258 15.8928 31.3403 16.0224C31.7638 15.9783 32.1654 15.8601 32.5317 15.6809C32.5292 15.6598 32.5269 15.6406 32.5246 15.622C32.2136 13.1279 31.0343 10.9302 29.3111 9.31918Z" fill="#FEBF32"/>
<path d="M16.8899 32.8067C17.1945 34.1332 17.8658 35.3054 18.7997 36.1414C19.7336 36.9774 20.8778 37.4305 22.0549 37.4305C23.232 37.4305 24.3762 36.9774 25.3101 36.1414C26.2439 35.3054 26.9152 34.1332 27.2199 32.8067" stroke="#FEBF32" stroke-width="1.22222" stroke-linecap="round"/>
<ellipse cx="30.9669" cy="12.4768" rx="3.56482" ry="3.56481" fill="#FEBF32"/>
</svg>
