<svg width="14" height="14" viewBox="0 0 14 14" fill="none" xmlns="http://www.w3.org/2000/svg">
<path d="M6.99999 6.41667C6.84528 6.41667 6.69691 6.47813 6.58751 6.58753C6.47812 6.69692 6.41666 6.8453 6.41666 7V9.33334C6.41666 9.48805 6.47812 9.63642 6.58751 9.74582C6.69691 9.85521 6.84528 9.91667 6.99999 9.91667C7.1547 9.91667 7.30307 9.85521 7.41247 9.74582C7.52187 9.63642 7.58333 9.48805 7.58333 9.33334V7C7.58333 6.8453 7.52187 6.69692 7.41247 6.58753C7.30307 6.47813 7.1547 6.41667 6.99999 6.41667ZM7.22166 4.13C7.07964 4.07166 6.92034 4.07166 6.77833 4.13C6.70672 4.15777 6.6413 4.1994 6.58583 4.25251C6.5343 4.30921 6.49287 4.37431 6.46333 4.445C6.43067 4.51423 6.41469 4.59015 6.41666 4.66667C6.41622 4.74344 6.43093 4.81955 6.45996 4.89062C6.48899 4.96169 6.53176 5.02633 6.58583 5.08084C6.64253 5.13236 6.70763 5.1738 6.77833 5.20334C6.8667 5.23965 6.96264 5.25369 7.05771 5.24424C7.15278 5.23478 7.24408 5.20213 7.32357 5.14913C7.40307 5.09613 7.46833 5.02442 7.51362 4.9403C7.55891 4.85617 7.58285 4.76221 7.58333 4.66667C7.58118 4.51222 7.52075 4.36429 7.41416 4.25251C7.35868 4.1994 7.29326 4.15777 7.22166 4.13ZM6.99999 1.16667C5.84627 1.16667 4.71845 1.50879 3.75917 2.14977C2.79988 2.79074 2.05221 3.70178 1.6107 4.76768C1.16918 5.83359 1.05366 7.00648 1.27874 8.13803C1.50383 9.26959 2.0594 10.309 2.8752 11.1248C3.69101 11.9406 4.73041 12.4962 5.86197 12.7213C6.99352 12.9463 8.16641 12.8308 9.23231 12.3893C10.2982 11.9478 11.2093 11.2001 11.8502 10.2408C12.4912 9.28154 12.8333 8.15373 12.8333 7C12.8333 6.23396 12.6824 5.47542 12.3893 4.76768C12.0961 4.05995 11.6665 3.41689 11.1248 2.87522C10.5831 2.33354 9.94005 1.90386 9.23231 1.61071C8.52458 1.31756 7.76604 1.16667 6.99999 1.16667ZM6.99999 11.6667C6.07701 11.6667 5.17476 11.393 4.40733 10.8802C3.6399 10.3674 3.04176 9.63858 2.68855 8.78586C2.33535 7.93314 2.24293 6.99483 2.42299 6.08958C2.60306 5.18434 3.04752 4.35282 3.70016 3.70017C4.35281 3.04753 5.18433 2.60307 6.08957 2.42301C6.99482 2.24294 7.93313 2.33536 8.78585 2.68857C9.63857 3.04178 10.3674 3.63991 10.8802 4.40734C11.393 5.17477 11.6667 6.07703 11.6667 7C11.6667 8.23768 11.175 9.42467 10.2998 10.2998C9.42465 11.175 8.23767 11.6667 6.99999 11.6667Z" fill="#EA3943"/>
</svg>
