<svg width="26" height="26" viewBox="0 0 26 26" fill="none" xmlns="http://www.w3.org/2000/svg">
<path d="M1 3.11765V22.1765C1 23.7365 2.19333 25 3.66667 25H22.3333C23.8067 25 25 23.7365 25 22.1765V8.05882C25 6.49882 23.8067 5.23529 22.3333 5.23529H3C1.896 5.23529 1 4.28659 1 3.11765V3.11765C1 1.94871 1.896 1 3 1H19.6667" stroke="#FEBF32" stroke-width="2" stroke-linecap="round" stroke-linejoin="round"/>
<path d="M17.9703 11.5445C17.8918 11.3553 17.7414 11.205 17.5523 11.1265C17.4592 11.0868 17.3592 11.0657 17.2581 11.0645H9.51612C9.3108 11.0645 9.11388 11.1461 8.96869 11.2913C8.8235 11.4365 8.74193 11.6334 8.74193 11.8387C8.74193 12.044 8.8235 12.241 8.96869 12.3861C9.11388 12.5313 9.3108 12.6129 9.51612 12.6129H15.3923L8.96645 19.031C8.89388 19.1029 8.83629 19.1886 8.79698 19.2829C8.75768 19.3773 8.73744 19.4784 8.73744 19.5806C8.73744 19.6828 8.75768 19.784 8.79698 19.8784C8.83629 19.9727 8.89388 20.0584 8.96645 20.1303C9.03842 20.2029 9.12405 20.2605 9.21839 20.2998C9.31273 20.3391 9.41392 20.3593 9.51612 20.3593C9.61833 20.3593 9.71952 20.3391 9.81386 20.2998C9.9082 20.2605 9.99383 20.2029 10.0658 20.1303L16.4839 13.7045V19.5806C16.4839 19.786 16.5654 19.9829 16.7106 20.1281C16.8558 20.2733 17.0527 20.3548 17.2581 20.3548C17.4634 20.3548 17.6603 20.2733 17.8055 20.1281C17.9507 19.9829 18.0323 19.786 18.0323 19.5806V11.8387C18.031 11.7375 18.01 11.6376 17.9703 11.5445Z" fill="#FEBF32"/>
</svg>
