<svg width="26" height="26" viewBox="0 0 26 26" fill="none" xmlns="http://www.w3.org/2000/svg">
<path d="M1 3.11765V22.1765C1 23.7365 2.19333 25 3.66667 25H22.3333C23.8067 25 25 23.7365 25 22.1765V8.05882C25 6.49882 23.8067 5.23529 22.3333 5.23529H3C1.896 5.23529 1 4.28659 1 3.11765V3.11765C1 1.94871 1.896 1 3 1H19.6667" stroke="#FEBF32" stroke-width="2" stroke-linecap="round" stroke-linejoin="round"/>
<path d="M17.2581 18.0323H11.3819L17.8077 11.6142C17.9535 11.4684 18.0354 11.2707 18.0354 11.0645C18.0354 10.8583 17.9535 10.6606 17.8077 10.5148C17.662 10.3691 17.4642 10.2872 17.2581 10.2872C17.0519 10.2872 16.8542 10.3691 16.7084 10.5148L10.2903 16.9406V11.0645C10.2903 10.8592 10.2087 10.6623 10.0636 10.5171C9.91837 10.3719 9.72145 10.2903 9.51612 10.2903C9.31079 10.2903 9.11387 10.3719 8.96868 10.5171C8.82349 10.6623 8.74193 10.8592 8.74193 11.0645V18.8065C8.74315 18.9076 8.76419 19.0076 8.80386 19.1006C8.88242 19.2898 9.03275 19.4401 9.22193 19.5187C9.315 19.5584 9.41495 19.5794 9.51612 19.5806H17.2581C17.4634 19.5806 17.6603 19.4991 17.8055 19.3539C17.9507 19.2087 18.0323 19.0118 18.0323 18.8065C18.0323 18.6011 17.9507 18.4042 17.8055 18.259C17.6603 18.1138 17.4634 18.0323 17.2581 18.0323Z" fill="#FEBF32"/>
</svg>
