<svg width="49" height="47" viewBox="0 0 49 47" fill="none" xmlns="http://www.w3.org/2000/svg">
<path d="M2 5.79412V39.9412C2 42.7362 4.24235 45 7.01084 45H42.0867C44.8552 45 47.0976 42.7362 47.0976 39.9412V14.6471C47.0976 11.8521 44.8552 9.58824 42.0867 9.58824H5.75813C3.68364 9.58824 2 7.88847 2 5.79412V5.79412C2 3.69976 3.68364 2 5.75813 2H37.0759" stroke="white" stroke-width="2.5" stroke-linecap="round" stroke-linejoin="round"/>
<path d="M18.7805 18.7805H31.3659" stroke="white" stroke-width="2" stroke-linecap="round" stroke-linejoin="round"/>
<path d="M18.7805 24.0244H31.3659" stroke="white" stroke-width="2" stroke-linecap="round" stroke-linejoin="round"/>
<path d="M18.7805 29.2683L27.6951 37.6585" stroke="white" stroke-width="2" stroke-linecap="round" stroke-linejoin="round"/>
<path d="M18.7805 29.2683H21.9268" stroke="white" stroke-width="2" stroke-linecap="round" stroke-linejoin="round"/>
<path d="M21.9268 29.2683C28.9191 29.2683 28.9191 18.7805 21.9268 18.7805" stroke="white" stroke-width="2" stroke-linecap="round" stroke-linejoin="round"/>
</svg>
