<svg width="35" height="29" viewBox="0 0 35 29" fill="none" xmlns="http://www.w3.org/2000/svg">
<path d="M34.7892 15.1878L31.0159 11.7706V3.61905C31.0159 3.26777 30.731 2.9836 30.3804 2.9836H27.0588C26.8901 2.9836 26.728 3.05001 26.6083 3.16981C26.4885 3.28962 26.4216 3.45156 26.4235 3.62095L26.4322 7.61898L18.2024 0.164747C17.9616 -0.0530212 17.5987 -0.0549287 17.3547 0.159199L0.216209 15.2548C-0.00277351 15.447 -0.0629373 15.7617 0.0703939 16.0211C0.201991 16.2786 0.492407 16.4164 0.775367 16.3519L4.58476 15.4919V27.24C4.58111 27.3425 4.57921 27.8723 4.96273 28.2706C5.13282 28.4455 5.43745 28.6558 5.9283 28.6558C6.8441 28.6558 14.4287 28.6465 14.4287 28.6465C14.7805 28.6465 15.0635 28.3616 15.0642 28.011L15.0741 20.9875C15.0678 20.9056 15.0827 20.6977 15.1672 20.6052C15.2242 20.5443 15.3464 20.5301 15.4371 20.5301H18.966C19.1243 20.5301 19.3382 20.5556 19.4481 20.6697C19.5692 20.7938 19.5673 21.0097 19.5654 21.0431L19.5492 27.9885C19.5492 28.1567 19.6149 28.3186 19.7348 28.4389C19.8539 28.558 20.0177 28.6264 20.1852 28.6264H28.5081C29.074 28.6264 29.4215 28.3874 29.6113 28.1882C30.055 27.7265 30.0401 27.0937 30.0377 27.0501V15.3002L34.2181 16.2781C34.503 16.3457 34.7915 16.2104 34.9274 15.9542C35.0623 15.6979 35.0052 15.3832 34.7892 15.1878ZM27.6968 4.25501H29.7457V10.619L27.7067 8.77232L27.6968 4.25501ZM29.5459 13.8791C29.3585 13.8344 29.1576 13.8791 29.0067 14.0002C28.8554 14.1205 28.7659 14.3043 28.7659 14.4985V27.0663C28.7659 27.1346 28.7411 27.2605 28.6933 27.3095C28.6542 27.348 28.5611 27.353 28.5077 27.353H20.822L20.8357 21.0889C20.8413 21.0126 20.8735 20.3319 20.3834 19.8057C20.1483 19.5569 19.7145 19.259 18.9649 19.259H15.4361C14.8025 19.259 14.4253 19.529 14.2205 19.7547C13.7843 20.2381 13.7917 20.8859 13.8028 21.0677L13.7929 27.3759C11.95 27.3778 6.6813 27.3846 5.92726 27.3846C5.90437 27.3846 5.88998 27.3834 5.88079 27.3834C5.87958 27.3834 5.87767 27.3834 5.87646 27.3834C5.86467 27.3579 5.856 27.3095 5.856 27.2662V14.6972C5.856 14.5042 5.76671 14.3211 5.61656 14.2001C5.46519 14.0797 5.26719 14.0357 5.07976 14.0766L2.9241 14.5631L17.7679 1.48904L26.4346 9.3379V9.3757H26.4755L32.1122 14.4813L29.5459 13.8791Z" fill="#ABAFC4"/>
</svg>
