<svg width="35" height="35" viewBox="0 0 35 35" fill="none" xmlns="http://www.w3.org/2000/svg">
<g clip-path="url(#clip0_1_1339)">
<path d="M0 0V25.7995V26.4995V34.9999H35V26.4995V25.7995V0H0ZM33.5999 33.5999H1.39998V30.75H33.5999V33.5999ZM33.5999 29.3501H1.39998V26.4995H33.5999V29.3501ZM33.5999 25.0995H1.39998V1.39998H33.5999V25.0995Z" fill="#ABAFC4"/>
<path d="M29.3999 8.51971C28.2419 8.51971 27.2999 7.57772 27.2999 6.41975V5.71976H7.69998V6.41975C7.69998 7.57772 6.75799 8.51971 5.60001 8.51971H4.90002V17.9806H5.60001C6.75799 17.9806 7.69998 18.9226 7.69998 20.0806V20.7806H27.2999V20.0806C27.2999 18.9226 28.2419 17.9806 29.3999 17.9806H30.0999V8.51971H29.3999ZM28.6999 16.6511C27.3307 16.93 26.2492 18.0114 25.9703 19.3806H9.02957C8.75067 18.0114 7.66919 16.93 6.3 16.6511V9.84931C7.66927 9.57041 8.75067 8.48893 9.02957 7.11973H25.9703C26.2492 8.489 27.3307 9.57041 28.6999 9.84931V16.6511Z" fill="#ABAFC4"/>
<path d="M17.5 9.89787C15.8614 9.89787 14.5277 11.4018 14.5277 13.2502C14.5277 15.0987 15.8614 16.6019 17.5 16.6019C19.1385 16.6019 20.4723 15.0987 20.4723 13.2502C20.4723 11.4018 19.1385 9.89787 17.5 9.89787ZM17.5 15.2019C16.6332 15.2019 15.9277 14.3262 15.9277 13.2502C15.9277 12.1736 16.6332 11.2978 17.5 11.2978C18.3667 11.2978 19.0722 12.1735 19.0722 13.2502C19.0722 14.3262 18.3667 15.2019 17.5 15.2019Z" fill="#ABAFC4"/>
</g>
<defs>
<clipPath id="clip0_1_1339">
<rect width="35" height="35" fill="white"/>
</clipPath>
</defs>
</svg>
