<svg width="43" height="43" viewBox="0 0 43 43" fill="none" xmlns="http://www.w3.org/2000/svg">
<path d="M29.9265 11.018C31.2885 12.3799 32.3688 13.9967 33.1059 15.7762C33.8429 17.5557 34.2223 19.4629 34.2223 21.3889C34.2223 23.315 33.8429 25.2222 33.1059 27.0017C32.3688 28.7811 31.2885 30.398 29.9265 31.7599C28.5646 33.1218 26.9477 34.2022 25.1683 34.9392C23.3888 35.6763 21.4816 36.0557 19.5556 36.0557C17.6295 36.0557 15.7223 35.6763 13.9428 34.9392C12.1634 34.2022 10.5465 33.1218 9.18459 31.7599C6.43404 29.0093 4.88879 25.2788 4.88879 21.3889C4.88879 17.4991 6.43404 13.7685 9.18459 11.018C11.9351 8.26741 15.6657 6.72217 19.5556 6.72217C23.4454 6.72217 27.176 8.26741 29.9265 11.018" stroke="#FEBF32" stroke-width="1.83333" stroke-linecap="round" stroke-linejoin="round"/>
<path d="M28.204 33.2151C27.5782 30.2166 23.9637 27.9074 19.5555 27.9074C15.1474 27.9074 11.5329 30.2166 10.9071 33.2151" stroke="#FEBF32" stroke-width="1.83333" stroke-linecap="round" stroke-linejoin="round"/>
<path d="M23.012 14.6732C23.4868 15.1223 23.8667 15.6619 24.1293 16.2603C24.3919 16.8587 24.5318 17.5036 24.5409 18.157C24.55 18.8104 24.428 19.459 24.1822 20.0644C23.9363 20.6699 23.5716 21.2199 23.1095 21.682C22.6474 22.144 22.0974 22.5088 21.492 22.7546C20.8865 23.0005 20.2379 23.1225 19.5845 23.1134C18.9311 23.1043 18.2862 22.9643 17.6878 22.7017C17.0895 22.4391 16.5498 22.0592 16.1008 21.5845C15.2372 20.6577 14.7671 19.4319 14.7894 18.1654C14.8117 16.8988 15.3248 15.6904 16.2206 14.7947C17.1163 13.8989 18.3247 13.3858 19.5913 13.3635C20.8578 13.3411 22.0836 13.8113 23.0104 14.6749" stroke="#FEBF32" stroke-width="1.83333" stroke-linecap="round" stroke-linejoin="round"/>
</svg>
