<svg width="58" height="16" viewBox="0 0 58 16" fill="none" xmlns="http://www.w3.org/2000/svg">
<path d="M7.67 4.77C7.67 5.33 7.535 5.855 7.265 6.345C7.005 6.835 6.59 7.23 6.02 7.53C5.46 7.83 4.75 7.98 3.89 7.98H2.135V12H0.0350001V1.53H3.89C4.7 1.53 5.39 1.67 5.96 1.95C6.53 2.23 6.955 2.615 7.235 3.105C7.525 3.595 7.67 4.15 7.67 4.77ZM3.8 6.285C4.38 6.285 4.81 6.155 5.09 5.895C5.37 5.625 5.51 5.25 5.51 4.77C5.51 3.75 4.94 3.24 3.8 3.24H2.135V6.285H3.8ZM12.851 12.135C12.051 12.135 11.331 11.96 10.691 11.61C10.051 11.25 9.54598 10.745 9.17598 10.095C8.81598 9.445 8.63598 8.695 8.63598 7.845C8.63598 6.995 8.82098 6.245 9.19098 5.595C9.57098 4.945 10.086 4.445 10.736 4.095C11.386 3.735 12.111 3.555 12.911 3.555C13.711 3.555 14.436 3.735 15.086 4.095C15.736 4.445 16.246 4.945 16.616 5.595C16.996 6.245 17.186 6.995 17.186 7.845C17.186 8.695 16.991 9.445 16.601 10.095C16.221 10.745 15.701 11.25 15.041 11.61C14.391 11.96 13.661 12.135 12.851 12.135ZM12.851 10.305C13.231 10.305 13.586 10.215 13.916 10.035C14.256 9.845 14.526 9.565 14.726 9.195C14.926 8.825 15.026 8.375 15.026 7.845C15.026 7.055 14.816 6.45 14.396 6.03C13.986 5.6 13.481 5.385 12.881 5.385C12.281 5.385 11.776 5.6 11.366 6.03C10.966 6.45 10.766 7.055 10.766 7.845C10.766 8.635 10.961 9.245 11.351 9.675C11.751 10.095 12.251 10.305 12.851 10.305ZM20.8264 4.89C21.0964 4.51 21.4664 4.195 21.9364 3.945C22.4164 3.685 22.9614 3.555 23.5714 3.555C24.2814 3.555 24.9214 3.73 25.4914 4.08C26.0714 4.43 26.5264 4.93 26.8564 5.58C27.1964 6.22 27.3664 6.965 27.3664 7.815C27.3664 8.665 27.1964 9.42 26.8564 10.08C26.5264 10.73 26.0714 11.235 25.4914 11.595C24.9214 11.955 24.2814 12.135 23.5714 12.135C22.9614 12.135 22.4214 12.01 21.9514 11.76C21.4914 11.51 21.1164 11.195 20.8264 10.815V15.96H18.7264V3.69H20.8264V4.89ZM25.2214 7.815C25.2214 7.315 25.1164 6.885 24.9064 6.525C24.7064 6.155 24.4364 5.875 24.0964 5.685C23.7664 5.495 23.4064 5.4 23.0164 5.4C22.6364 5.4 22.2764 5.5 21.9364 5.7C21.6064 5.89 21.3364 6.17 21.1264 6.54C20.9264 6.91 20.8264 7.345 20.8264 7.845C20.8264 8.345 20.9264 8.78 21.1264 9.15C21.3364 9.52 21.6064 9.805 21.9364 10.005C22.2764 10.195 22.6364 10.29 23.0164 10.29C23.4064 10.29 23.7664 10.19 24.0964 9.99C24.4364 9.79 24.7064 9.505 24.9064 9.135C25.1164 8.765 25.2214 8.325 25.2214 7.815ZM36.7374 3.69V12H34.6224V10.95C34.3524 11.31 33.9974 11.595 33.5574 11.805C33.1274 12.005 32.6574 12.105 32.1474 12.105C31.4974 12.105 30.9224 11.97 30.4224 11.7C29.9224 11.42 29.5274 11.015 29.2374 10.485C28.9574 9.945 28.8174 9.305 28.8174 8.565V3.69H30.9174V8.265C30.9174 8.925 31.0824 9.435 31.4124 9.795C31.7424 10.145 32.1924 10.32 32.7624 10.32C33.3424 10.32 33.7974 10.145 34.1274 9.795C34.4574 9.435 34.6224 8.925 34.6224 8.265V3.69H36.7374ZM40.9094 0.9V12H38.8094V0.9H40.9094ZM42.4442 7.815C42.4442 6.975 42.6092 6.23 42.9392 5.58C43.2792 4.93 43.7342 4.43 44.3042 4.08C44.8842 3.73 45.5292 3.555 46.2392 3.555C46.8592 3.555 47.3992 3.68 47.8592 3.93C48.3292 4.18 48.7042 4.495 48.9842 4.875V3.69H51.0992V12H48.9842V10.785C48.7142 11.175 48.3392 11.5 47.8592 11.76C47.3892 12.01 46.8442 12.135 46.2242 12.135C45.5242 12.135 44.8842 11.955 44.3042 11.595C43.7342 11.235 43.2792 10.73 42.9392 10.08C42.6092 9.42 42.4442 8.665 42.4442 7.815ZM48.9842 7.845C48.9842 7.335 48.8842 6.9 48.6842 6.54C48.4842 6.17 48.2142 5.89 47.8742 5.7C47.5342 5.5 47.1692 5.4 46.7792 5.4C46.3892 5.4 46.0292 5.495 45.6992 5.685C45.3692 5.875 45.0992 6.155 44.8892 6.525C44.6892 6.885 44.5892 7.315 44.5892 7.815C44.5892 8.315 44.6892 8.755 44.8892 9.135C45.0992 9.505 45.3692 9.79 45.6992 9.99C46.0392 10.19 46.3992 10.29 46.7792 10.29C47.1692 10.29 47.5342 10.195 47.8742 10.005C48.2142 9.805 48.4842 9.525 48.6842 9.165C48.8842 8.795 48.9842 8.355 48.9842 7.845ZM55.2502 4.98C55.5202 4.54 55.8702 4.195 56.3002 3.945C56.7402 3.695 57.2402 3.57 57.8002 3.57V5.775H57.2452C56.5852 5.775 56.0852 5.93 55.7452 6.24C55.4152 6.55 55.2502 7.09 55.2502 7.86V12H53.1502V3.69H55.2502V4.98Z" fill="url(#paint0_linear_1_1457)"/>
<defs>
<linearGradient id="paint0_linear_1_1457" x1="-1" y1="-1" x2="59.8479" y2="4.34193" gradientUnits="userSpaceOnUse">
<stop stop-color="#72F6D1"/>
<stop offset="0.21875" stop-color="#07E57D"/>
<stop offset="0.557292" stop-color="#A0ED8D"/>
<stop offset="0.817708" stop-color="#FED365"/>
<stop offset="1" stop-color="#FAA49E"/>
</linearGradient>
</defs>
</svg>
