<svg width="35" height="32" viewBox="0 0 35 32" fill="none" xmlns="http://www.w3.org/2000/svg">
<path d="M32.1139 4.67641H24.1017L23.4792 2.18634C23.1573 0.898996 22.0058 0 20.6791 0H14.3209C12.9942 0 11.8427 0.899064 11.5207 2.18641L10.8983 4.67641H2.88621C1.2948 4.67641 0 5.97113 0 7.56261V28.6065C0 30.198 1.2948 31.4927 2.88621 31.4927H32.1138C33.7053 31.4927 35 30.1979 35 28.6065V7.56261C35.0001 5.97113 33.7053 4.67641 32.1139 4.67641ZM12.584 2.45233C12.7838 1.65375 13.4981 1.09601 14.321 1.09601H20.6792C21.5021 1.09601 22.2163 1.65375 22.4161 2.45226L22.9721 4.67641H21.6916L21.2108 2.75332C21.1499 2.50934 20.9307 2.33824 20.6792 2.33824H14.321C14.0695 2.33824 13.8503 2.50934 13.7893 2.75332L13.3087 4.67641H12.0282L12.584 2.45233ZM20.5618 4.67641H14.4383L14.7488 3.43424H20.2512L20.5618 4.67641ZM2.88621 5.77241H32.1138C32.661 5.77241 33.1513 6.01946 33.48 6.40754L29.9218 17.0818C29.5981 18.0531 28.6927 18.7056 27.6689 18.7056H19.8017V17.5C19.8017 16.8754 19.2936 16.3674 18.6691 16.3674H16.3309C15.7063 16.3674 15.1983 16.8754 15.1983 17.5V18.7056H7.33108C6.30733 18.7056 5.40191 18.0531 5.07815 17.0819L1.52004 6.40754C1.84871 6.01946 2.33899 5.77241 2.88621 5.77241ZM16.2944 19.8748V17.5C16.2944 17.4799 16.3107 17.4635 16.3309 17.4635H18.6691C18.6893 17.4635 18.7056 17.4799 18.7056 17.5V19.8748H16.2944ZM18.7057 20.9708V22.1764C18.7057 22.1966 18.6894 22.2129 18.6692 22.2129H16.3309C16.3108 22.2129 16.2944 22.1966 16.2944 22.1764V20.9708H18.7057ZM33.9041 28.6065C33.9041 29.5936 33.101 30.3967 32.1139 30.3967H2.88621C1.8991 30.3967 1.09601 29.5936 1.09601 28.6065V8.60147L4.03834 17.4285C4.51152 18.8479 5.83476 19.8017 7.33108 19.8017H15.1984V22.1764C15.1984 22.801 15.7064 23.309 16.3309 23.309H18.6692C19.2937 23.309 19.8018 22.801 19.8018 22.1764V19.8017H27.6691C29.1654 19.8017 30.4885 18.848 30.9618 17.4285L33.9041 8.60147V28.6065H33.9041Z" fill="#ABAFC4"/>
</svg>
