<svg width="32" height="32" viewBox="0 0 32 32" fill="none" xmlns="http://www.w3.org/2000/svg">
<g clip-path="url(#clip0_1_1357)">
<g clip-path="url(#clip1_1_1357)">
<path d="M28.005 16C28.005 22.6302 22.6301 28.005 16 28.005" stroke="#ABAFC4" stroke-width="1.5" stroke-linecap="round" stroke-linejoin="round"/>
<path d="M3.995 16C3.995 9.36982 9.36982 3.995 16 3.995" stroke="#ABAFC4" stroke-width="1.5" stroke-linecap="round" stroke-linejoin="round"/>
<path d="M3.995 16C3.99518 17.4062 4.24529 18.8012 4.73365 20.1198C4.95699 20.7323 5.58669 21.097 6.22907 20.9861L7.54454 20.7541C8.60775 20.5667 9.3305 19.5695 9.17782 18.5007L8.7819 15.7293C8.70524 15.1928 8.41422 14.7103 7.97539 14.3922C7.53656 14.0742 6.98748 13.9477 6.45374 14.0419L4.10531 14.4559" stroke="#ABAFC4" stroke-width="1.5" stroke-linecap="round" stroke-linejoin="round"/>
<path d="M28.005 16C28.005 9.36982 22.6301 3.995 16 3.995" stroke="#ABAFC4" stroke-width="1.5" stroke-linecap="round" stroke-linejoin="round"/>
<path d="M28.005 16C28.0048 17.4062 27.7547 18.8012 27.2663 20.1198C27.043 20.7323 26.4133 21.097 25.7709 20.9861L24.4554 20.7541C23.3922 20.5667 22.6695 19.5695 22.8222 18.5007L23.2181 15.7293C23.2947 15.1928 23.5858 14.7103 24.0246 14.3922C24.4634 14.0742 25.0125 13.9477 25.5462 14.0419L27.8947 14.4559" stroke="#ABAFC4" stroke-width="1.5" stroke-linecap="round" stroke-linejoin="round"/>
<path d="M17.9909 16.6549C17.9868 16.6549 17.9832 16.6574 17.9816 16.6611C17.9801 16.6648 17.981 16.6691 17.9838 16.6719C17.9866 16.6748 17.9909 16.6757 17.9947 16.6741C17.9984 16.6726 18.0008 16.6689 18.0008 16.6649C18.001 16.6622 18 16.6596 17.9981 16.6577C17.9962 16.6558 17.9936 16.6548 17.9909 16.6549" stroke="#ABAFC4" stroke-width="1.5" stroke-linecap="round" stroke-linejoin="round"/>
<path d="M14.0091 16.6589C14.0051 16.6589 14.0014 16.6614 13.9999 16.6651C13.9983 16.6688 13.9992 16.6731 14.0021 16.676C14.0049 16.6788 14.0092 16.6797 14.0129 16.6781C14.0166 16.6766 14.0191 16.6729 14.0191 16.6689C14.0192 16.6662 14.0183 16.6636 14.0163 16.6617C14.0144 16.6597 14.0118 16.6588 14.0091 16.6589" stroke="#ABAFC4" stroke-width="1.5" stroke-linecap="round" stroke-linejoin="round"/>
</g>
</g>
<defs>
<clipPath id="clip0_1_1357">
<rect width="32" height="32" fill="white"/>
</clipPath>
<clipPath id="clip1_1_1357">
<rect width="32" height="32" fill="white"/>
</clipPath>
</defs>
</svg>
