<svg width="37" height="39" viewBox="0 0 37 39" fill="none" xmlns="http://www.w3.org/2000/svg">
<path d="M34.625 14.9167C34.8603 14.9167 35.0933 14.8704 35.3107 14.7804C35.5281 14.6904 35.7256 14.5584 35.892 14.392C36.0584 14.2257 36.1904 14.0281 36.2804 13.8107C36.3704 13.5933 36.4167 13.3603 36.4166 13.125V7.75C36.4168 7.37407 36.2986 7.00763 36.0787 6.70267C35.8589 6.39772 35.5486 6.16974 35.1919 6.05107L19.0669 0.676071C18.6989 0.553594 18.3011 0.553594 17.9331 0.676071L1.80808 6.05107C1.45136 6.16974 1.14107 6.39772 0.921232 6.70267C0.70139 7.00763 0.583159 7.37407 0.583313 7.75V13.125C0.583252 13.3603 0.629553 13.5933 0.719571 13.8107C0.809589 14.0281 0.94156 14.2257 1.10794 14.392C1.27433 14.5584 1.47186 14.6904 1.68927 14.7804C1.90667 14.8704 2.13968 14.9167 2.37498 14.9167H4.16665V27.7885C3.12163 28.1566 2.21618 28.8391 1.57458 29.7424C0.932992 30.6457 0.586722 31.7254 0.583313 32.8333V36.4167C0.583252 36.652 0.629553 36.885 0.719571 37.1024C0.809589 37.3198 0.94156 37.5173 1.10794 37.6837C1.27433 37.8501 1.47186 37.9821 1.68927 38.0721C1.90667 38.1621 2.13968 38.2084 2.37498 38.2083H34.625C34.8603 38.2084 35.0933 38.1621 35.3107 38.0721C35.5281 37.9821 35.7256 37.8501 35.892 37.6837C36.0584 37.5173 36.1904 37.3198 36.2804 37.1024C36.3704 36.885 36.4167 36.652 36.4166 36.4167V32.8333C36.4132 31.7254 36.067 30.6457 35.4254 29.7424C34.7838 28.8391 33.8783 28.1566 32.8333 27.7885V14.9167H34.625ZM32.8333 34.625H4.16665V32.8333C4.16712 32.3583 4.35604 31.9029 4.69194 31.567C5.02784 31.2311 5.48328 31.0421 5.95831 31.0417H31.0416C31.5167 31.0421 31.9721 31.2311 32.308 31.567C32.6439 31.9029 32.8328 32.3583 32.8333 32.8333V34.625ZM7.74998 27.4583V14.9167H11.3333V27.4583H7.74998ZM14.9166 27.4583V14.9167H22.0833V27.4583H14.9166ZM25.6666 27.4583V14.9167H29.25V27.4583H25.6666ZM4.16665 11.3333V9.04125L18.5 4.26288L32.8333 9.04125V11.3333H4.16665Z" fill="#FEBF32"/>
</svg>
