<svg width="41" height="39" viewBox="0 0 41 39" fill="none" xmlns="http://www.w3.org/2000/svg">
<g filter="url(#filter0_d_1_1351)">
<path d="M27.9674 21.3283C27.631 21.3299 27.3596 21.6029 27.3596 21.9393C27.3596 22.2757 27.6326 22.5487 27.969 22.5471C28.3054 22.5471 28.5784 22.2741 28.5784 21.9377C28.5784 21.6013 28.3054 21.3283 27.9674 21.3283" stroke="#FEBF32" stroke-width="1.67143" stroke-linecap="round" stroke-linejoin="round"/>
<path d="M5.87515 8.12482V30.0623C5.87515 31.8579 7.32953 33.3123 9.12515 33.3123H31.8752C33.6708 33.3123 35.1252 31.8579 35.1252 30.0623V13.8123C35.1252 12.0167 33.6708 10.5623 31.8752 10.5623H8.31265C6.96715 10.5623 5.87515 9.47032 5.87515 8.12482V8.12482C5.87515 6.77932 6.96715 5.68732 8.31265 5.68732H28.6252" stroke="#FEBF32" stroke-width="1.67143" stroke-linecap="round" stroke-linejoin="round"/>
</g>
<defs>
<filter id="filter0_d_1_1351" x="0.582286" y="0.394458" width="39.8357" height="38.2107" filterUnits="userSpaceOnUse" color-interpolation-filters="sRGB">
<feFlood flood-opacity="0" result="BackgroundImageFix"/>
<feColorMatrix in="SourceAlpha" type="matrix" values="0 0 0 0 0 0 0 0 0 0 0 0 0 0 0 0 0 0 127 0" result="hardAlpha"/>
<feOffset/>
<feGaussianBlur stdDeviation="2.22857"/>
<feComposite in2="hardAlpha" operator="out"/>
<feColorMatrix type="matrix" values="0 0 0 0 0 0 0 0 0 0 0 0 0 0 0 0 0 0 0.5 0"/>
<feBlend mode="normal" in2="BackgroundImageFix" result="effect1_dropShadow_1_1351"/>
<feBlend mode="normal" in="SourceGraphic" in2="effect1_dropShadow_1_1351" result="shape"/>
</filter>
</defs>
</svg>
